<svg width="146" height="33" viewBox="0 0 146 33" fill="none" xmlns="http://www.w3.org/2000/svg">
<g clip-path="url(#clip0_2_34)">
<path d="M42.4419 21.4272C42.2475 21.4272 42.0873 21.3643 41.9615 21.2385C41.8357 21.1127 41.7728 20.9525 41.7728 20.7581V8.69624C41.7728 8.50178 41.8357 8.34164 41.9615 8.21582C42.0873 8.09 42.2475 8.02709 42.4419 8.02709C42.6478 8.02709 42.8194 8.10716 42.9566 8.26729L51.158 19.0423V8.69624C51.158 8.50178 51.2209 8.34164 51.3467 8.21582C51.4726 8.09 51.6327 8.02709 51.8272 8.02709C52.0102 8.02709 52.1646 8.09 52.2904 8.21582C52.4277 8.34164 52.4963 8.50178 52.4963 8.69624V20.7581C52.4963 20.9525 52.4277 21.1127 52.2904 21.2385C52.1646 21.3643 52.0102 21.4272 51.8272 21.4272C51.7357 21.4272 51.6441 21.4101 51.5526 21.3758C51.4611 21.3415 51.3868 21.2843 51.3296 21.2042L43.1111 10.4292V20.7581C43.1111 20.9525 43.0424 21.1127 42.9052 21.2385C42.7793 21.3643 42.6249 21.4272 42.4419 21.4272ZM62.1251 21.5988C61.13 21.5988 60.2149 21.4272 59.3799 21.0841C58.5449 20.7409 57.8186 20.2605 57.2009 19.6428C56.5946 19.0252 56.1199 18.2988 55.7768 17.4638C55.4451 16.6288 55.2792 15.7137 55.2792 14.7186C55.2792 13.7349 55.4451 12.8255 55.7768 11.9905C56.1199 11.1555 56.5946 10.4292 57.2009 9.81149C57.8186 9.19381 58.5449 8.71339 59.3799 8.37024C60.2149 8.02709 61.13 7.85551 62.1251 7.85551C63.1088 7.85551 64.0182 8.02709 64.8532 8.37024C65.6882 8.71339 66.4146 9.19381 67.0322 9.81149C67.6499 10.4292 68.1246 11.1555 68.4563 11.9905C68.7995 12.8255 68.9711 13.7349 68.9711 14.7186C68.9711 15.7137 68.7995 16.6288 68.4563 17.4638C68.1246 18.2988 67.6499 19.0252 67.0322 19.6428C66.4146 20.2605 65.6882 20.7409 64.8532 21.0841C64.0182 21.4272 63.1088 21.5988 62.1251 21.5988ZM62.1251 20.3292C62.9144 20.3292 63.6464 20.1919 64.3213 19.9174C64.9962 19.6314 65.5795 19.2368 66.0714 18.7335C66.5747 18.2188 66.9636 17.624 67.2381 16.9491C67.5126 16.2628 67.6499 15.5193 67.6499 14.7186C67.6499 13.9293 67.5126 13.1973 67.2381 12.5224C66.9636 11.8361 66.5747 11.2413 66.0714 10.738C65.5795 10.2233 64.9962 9.82864 64.3213 9.55412C63.6464 9.26816 62.9144 9.12518 62.1251 9.12518C61.3244 9.12518 60.5867 9.26816 59.9118 9.55412C59.2369 9.82864 58.6478 10.2233 58.1445 10.738C57.6527 11.2413 57.2695 11.8361 56.995 12.5224C56.7205 13.1973 56.5832 13.9293 56.5832 14.7186C56.5832 15.5193 56.7205 16.2628 56.995 16.9491C57.2695 17.624 57.6527 18.2188 58.1445 18.7335C58.6478 19.2368 59.2369 19.6314 59.9118 19.9174C60.5867 20.1919 61.3244 20.3292 62.1251 20.3292ZM72.4008 21.4272C72.2064 21.4272 72.0463 21.3643 71.9204 21.2385C71.7946 21.1127 71.7317 20.9525 71.7317 20.7581V8.69624C71.7317 8.50178 71.7946 8.34164 71.9204 8.21582C72.0463 8.09 72.2064 8.02709 72.4008 8.02709H75.4892C76.4729 8.02709 77.3709 8.19294 78.183 8.52466C79.0066 8.84494 79.7157 9.30819 80.3105 9.91443C80.9053 10.5092 81.3629 11.2127 81.6832 12.0248C82.0149 12.837 82.1807 13.7349 82.1807 14.7186C82.1807 15.7023 82.0149 16.6059 81.6832 17.4295C81.3629 18.2416 80.9053 18.9508 80.3105 19.5571C79.7157 20.1519 79.0066 20.6151 78.183 20.9468C77.3709 21.2671 76.4729 21.4272 75.4892 21.4272H72.4008ZM73.07 20.2262H75.4892C76.5416 20.2262 77.4681 19.9917 78.2688 19.5227C79.0809 19.0423 79.7157 18.3903 80.1733 17.5668C80.6308 16.7318 80.8596 15.7824 80.8596 14.7186C80.8596 13.6548 80.6308 12.7111 80.1733 11.8876C79.7157 11.0526 79.0809 10.4006 78.2688 9.93159C77.4681 9.46261 76.5416 9.22813 75.4892 9.22813H73.07V20.2262ZM85.6042 21.4272C85.4098 21.4272 85.2496 21.3643 85.1238 21.2385C84.998 21.1127 84.9351 20.9525 84.9351 20.7581V8.69624C84.9351 8.50178 84.998 8.34164 85.1238 8.21582C85.2496 8.09 85.4098 8.02709 85.6042 8.02709H93.6512C93.8342 8.02709 93.9886 8.09 94.1144 8.21582C94.2517 8.33021 94.3203 8.48462 94.3203 8.67908C94.3203 8.85066 94.2517 8.99936 94.1144 9.12518C93.9886 9.251 93.8342 9.31391 93.6512 9.31391H86.2734V14.0494H91.6437C91.8382 14.0494 91.9983 14.1123 92.1242 14.2382C92.25 14.364 92.3129 14.5184 92.3129 14.7014C92.3129 14.8844 92.25 15.0389 92.1242 15.1647C91.9983 15.2905 91.8382 15.3534 91.6437 15.3534H86.2734V20.1404H93.6512C93.8342 20.1404 93.9886 20.2033 94.1144 20.3292C94.2517 20.455 94.3203 20.6037 94.3203 20.7753C94.3203 20.9697 94.2517 21.1298 94.1144 21.2557C93.9886 21.3701 93.8342 21.4272 93.6512 21.4272H85.6042ZM96.4201 21.4272C96.2371 21.4272 96.077 21.3643 95.9397 21.2385C95.8139 21.1012 95.751 20.9411 95.751 20.7581V8.69624C95.751 8.50178 95.8139 8.34164 95.9397 8.21582C96.0656 8.09 96.2257 8.02709 96.4201 8.02709H104.467C104.662 8.02709 104.822 8.09 104.948 8.21582C105.073 8.33021 105.136 8.48462 105.136 8.67908C105.136 8.85066 105.073 8.99936 104.948 9.12518C104.822 9.251 104.662 9.31391 104.467 9.31391H97.0893V14.0494H102.46C102.654 14.0494 102.814 14.1123 102.94 14.2382C103.066 14.364 103.129 14.5184 103.129 14.7014C103.129 14.8844 103.066 15.0389 102.94 15.1647C102.814 15.2905 102.654 15.3534 102.46 15.3534H97.0893V20.7581C97.0893 20.9411 97.0264 21.1012 96.9006 21.2385C96.7747 21.3643 96.6146 21.4272 96.4201 21.4272ZM108.207 21.4272C108.024 21.4272 107.864 21.3643 107.727 21.2385C107.601 21.1127 107.538 20.9525 107.538 20.7581V8.69624C107.538 8.51322 107.601 8.3588 107.727 8.23298C107.864 8.09572 108.024 8.02709 108.207 8.02709C108.39 8.02709 108.545 8.09572 108.671 8.23298C108.808 8.3588 108.877 8.51322 108.877 8.69624V20.1576H115.585C115.768 20.1576 115.923 20.2205 116.049 20.3463C116.186 20.4607 116.254 20.6094 116.254 20.7924C116.254 20.9754 116.186 21.1298 116.049 21.2557C115.923 21.3701 115.768 21.4272 115.585 21.4272H108.207ZM117.658 21.4272C117.395 21.4272 117.206 21.3186 117.092 21.1012C116.978 20.8839 116.966 20.6723 117.058 20.4664L122.102 8.49034C122.228 8.18151 122.445 8.02709 122.754 8.02709C123.051 8.02709 123.263 8.18151 123.389 8.49034L128.45 20.4836C128.553 20.7009 128.536 20.9125 128.399 21.1184C128.273 21.3243 128.09 21.4272 127.85 21.4272C127.713 21.4272 127.587 21.3929 127.472 21.3243C127.369 21.2557 127.284 21.1527 127.215 21.0155L122.497 9.57128H123.029L118.276 21.0155C118.219 21.1527 118.133 21.2557 118.018 21.3243C117.916 21.3929 117.795 21.4272 117.658 21.4272ZM118.791 18.2359L119.305 17.0863H126.271L126.786 18.2359H118.791ZM131.129 21.4272C130.935 21.4272 130.774 21.3643 130.649 21.2385C130.523 21.1127 130.46 20.9525 130.46 20.7581V8.69624C130.46 8.50178 130.523 8.34164 130.649 8.21582C130.774 8.09 130.935 8.02709 131.129 8.02709C131.324 8.02709 131.484 8.09 131.61 8.21582C131.735 8.34164 131.798 8.50178 131.798 8.69624V20.7581C131.798 20.9525 131.735 21.1127 131.61 21.2385C131.484 21.3643 131.324 21.4272 131.129 21.4272ZM135.904 21.4272C135.71 21.4272 135.55 21.3643 135.424 21.2385C135.298 21.1127 135.235 20.9525 135.235 20.7581V8.69624C135.235 8.50178 135.298 8.34164 135.424 8.21582C135.55 8.09 135.71 8.02709 135.904 8.02709H139.113C139.948 8.02709 140.691 8.20438 141.343 8.55897C141.995 8.90213 142.504 9.38826 142.87 10.0174C143.248 10.6351 143.437 11.35 143.437 12.1621C143.437 12.9399 143.248 13.6319 142.87 14.2382C142.504 14.8444 141.995 15.3191 141.343 15.6623C140.691 16.0054 139.948 16.177 139.113 16.177H136.574V20.7581C136.574 20.9525 136.511 21.1127 136.385 21.2385C136.259 21.3643 136.099 21.4272 135.904 21.4272ZM143.076 21.4272C142.928 21.4272 142.808 21.3986 142.716 21.3415C142.636 21.2843 142.562 21.1985 142.493 21.0841L139.199 15.8338L140.537 15.4907L143.608 20.3978C143.78 20.6723 143.808 20.9125 143.694 21.1184C143.591 21.3243 143.385 21.4272 143.076 21.4272ZM136.574 14.8902H139.113C139.696 14.8902 140.211 14.7758 140.657 14.547C141.115 14.3068 141.475 13.9808 141.738 13.569C142.001 13.1572 142.133 12.6883 142.133 12.1621C142.133 11.6016 142.001 11.1098 141.738 10.6865C141.475 10.2519 141.115 9.91443 140.657 9.67422C140.211 9.43402 139.696 9.31391 139.113 9.31391H136.574V14.8902Z" fill="white"/>
<path d="M38.9766 23.2747C38.9112 23.2094 38.8599 23.1313 38.8259 23.0453C38.7919 22.9594 38.7759 22.8673 38.7788 22.7749V10.226C38.779 10.0829 38.8231 9.94336 38.9053 9.82624C38.9875 9.70913 39.1038 9.62015 39.2383 9.57139C39.3728 9.52264 39.5191 9.51647 39.6572 9.55373C39.7954 9.59099 39.9187 9.66987 40.0105 9.77966L48.5424 20.9884V10.226C48.5395 10.133 48.5563 10.0403 48.5917 9.95421C48.6271 9.86808 48.6803 9.7904 48.7477 9.72625C48.8449 9.62703 48.9696 9.55931 49.1058 9.5319C49.2419 9.50449 49.3831 9.51865 49.5111 9.57255C49.6391 9.62644 49.7479 9.71757 49.8234 9.83411C49.8989 9.95065 49.9377 10.0872 49.9346 10.226V22.7739C49.9357 22.8648 49.9188 22.955 49.8849 23.0392C49.8509 23.1235 49.8006 23.2002 49.7368 23.2648C49.6726 23.3322 49.5949 23.3854 49.5088 23.4208C49.4226 23.4562 49.33 23.473 49.237 23.4702C48.9985 23.4702 48.826 23.3933 48.7194 23.2394L40.1694 12.0306V22.7739C40.1706 22.8648 40.1538 22.955 40.1198 23.0393C40.0859 23.1235 40.0355 23.2002 39.9716 23.2648C39.9074 23.3322 39.8297 23.3854 39.7436 23.4208C39.6575 23.4562 39.5649 23.473 39.4718 23.4702C39.3803 23.4728 39.2893 23.4569 39.2042 23.4233C39.1191 23.3897 39.0416 23.3391 38.9766 23.2747Z" fill="#3A3A3A"/>
<path d="M56.2903 22.7205C55.2227 22.1172 54.3424 21.2308 53.7465 20.159C53.1338 19.0704 52.8274 17.8478 52.8274 16.4911C52.8274 15.1344 53.1338 13.9146 53.7465 12.8317C54.3446 11.7639 55.2246 10.8809 56.2903 10.2791C57.3729 9.66065 58.5927 9.35131 59.9496 9.35109C61.294 9.35109 62.5107 9.66043 63.5997 10.2791C64.6692 10.8789 65.5524 11.7622 66.152 12.8317C66.765 13.9146 67.0715 15.1344 67.0715 16.4911C67.0715 17.8478 66.765 19.0704 66.152 20.159C65.5546 21.2325 64.6711 22.1192 63.5997 22.7205C62.5107 23.3392 61.294 23.6486 59.9496 23.6486C58.5929 23.6486 57.3731 23.3392 56.2903 22.7205ZM62.8837 21.5601C63.7481 21.06 64.461 20.3354 64.9471 19.4631C65.4469 18.5767 65.6968 17.586 65.6968 16.4911C65.6968 15.4085 65.4469 14.4237 64.9471 13.5369C64.4613 12.6648 63.749 11.9402 62.8853 11.4396C62.0106 10.9279 61.0319 10.6721 59.9493 10.6721C58.8543 10.6721 57.8696 10.9279 56.9951 11.4396C56.1316 11.94 55.4193 12.6646 54.9337 13.5366C54.4339 14.4234 54.184 15.4081 54.184 16.4908C54.184 17.5857 54.4339 18.5764 54.9337 19.4627C55.4191 20.3351 56.1314 21.0599 56.9951 21.5604C57.8698 22.0723 58.8546 22.3281 59.9493 22.3279C61.0319 22.3277 62.0106 22.0719 62.8853 21.5604L62.8837 21.5601Z" fill="#3A3A3A"/>
<path d="M70.1407 23.2747C70.0757 23.2092 70.0247 23.1311 69.991 23.0451C69.9572 22.9592 69.9415 22.8672 69.9446 22.7749V10.226C69.9412 10.1337 69.9568 10.0417 69.9906 9.95568C70.0243 9.86968 70.0755 9.79157 70.1408 9.72623C70.2061 9.66088 70.2842 9.60971 70.3702 9.57591C70.4562 9.54211 70.5482 9.5264 70.6405 9.52978H73.8535C75.1979 9.52978 76.3997 9.82736 77.4591 10.4225C78.4991 10.9982 79.3559 11.8551 79.9316 12.895C80.5206 13.9482 80.8151 15.1471 80.8151 16.4918C80.8151 17.8364 80.5206 19.0382 79.9316 20.0974C79.358 21.141 78.5008 22.0011 77.4591 22.5781C76.3997 23.1735 75.1979 23.4711 73.8535 23.4709H70.6405C70.5482 23.4741 70.4563 23.4583 70.3703 23.4246C70.2843 23.3908 70.2062 23.3398 70.1407 23.2747ZM73.8535 22.2198C74.9361 22.2198 75.9 21.9729 76.745 21.479C77.5815 20.9937 78.2673 20.2863 78.7263 19.435C79.2022 18.5667 79.4402 17.585 79.4404 16.4901C79.4406 15.3952 79.2029 14.4137 78.7273 13.5458C78.2694 12.6962 77.5831 11.9915 76.746 11.5111C75.9003 11.0238 74.9361 10.7802 73.8535 10.7802H71.3368V22.2198H73.8535Z" fill="#3A3A3A"/>
<path d="M83.8932 23.2648C83.8273 23.2014 83.7751 23.1251 83.7399 23.0406C83.7046 22.9562 83.687 22.8655 83.6882 22.774V10.2261C83.6852 10.1328 83.7019 10.0401 83.7372 9.95377C83.7726 9.86747 83.8257 9.78961 83.8932 9.72528C83.9579 9.66144 84.0346 9.61107 84.1188 9.57711C84.2031 9.54316 84.2933 9.52629 84.3841 9.52748H92.7554C92.8478 9.52465 92.9398 9.54073 93.0258 9.57475C93.1117 9.60876 93.1898 9.65999 93.2552 9.72528C93.3193 9.78786 93.37 9.86291 93.404 9.9458C93.438 10.0287 93.4547 10.1177 93.453 10.2073C93.4553 10.2956 93.4388 10.3834 93.4048 10.465C93.3707 10.5465 93.3197 10.6199 93.2552 10.6803C93.1234 10.8054 92.9568 10.8678 92.7554 10.8676H85.0804V15.7948H90.667C90.7594 15.7919 90.8514 15.808 90.9374 15.842C91.0233 15.876 91.1014 15.9273 91.1668 15.9926C91.2309 16.0552 91.2815 16.1303 91.3155 16.2132C91.3496 16.2961 91.3662 16.385 91.3646 16.4746C91.3662 16.5649 91.3488 16.6545 91.3134 16.7376C91.278 16.8206 91.2254 16.8953 91.1592 16.9566C91.0946 17.0205 91.0179 17.0708 90.9336 17.1048C90.8493 17.1387 90.7592 17.1556 90.6683 17.1544H85.0804V22.1314H92.7554C92.9576 22.1314 93.1242 22.1939 93.2552 22.3187C93.3197 22.3791 93.3707 22.4525 93.4048 22.5341C93.4388 22.6156 93.4553 22.7034 93.453 22.7918C93.4548 22.8814 93.4381 22.9704 93.4041 23.0533C93.3701 23.1362 93.3194 23.2112 93.2552 23.2737C93.1898 23.3391 93.1118 23.3904 93.0258 23.4244C92.9399 23.4584 92.8478 23.4745 92.7554 23.4715H84.3841C84.2925 23.4725 84.2017 23.4546 84.1173 23.419C84.0328 23.3835 83.9566 23.331 83.8932 23.2648Z" fill="#3A3A3A"/>
<path d="M95.1828 23.2022C95.0955 23.1164 95.0267 23.0136 94.9807 22.9002C94.9347 22.7868 94.9123 22.6652 94.9151 22.5429V10.4581C94.9151 10.1845 95.0043 9.96143 95.1828 9.7889C95.2699 9.704 95.3731 9.63735 95.4863 9.59285C95.5996 9.54835 95.7205 9.52691 95.8421 9.52978H103.911C104.184 9.52978 104.404 9.61011 104.57 9.77077C104.736 9.93143 104.819 10.1426 104.82 10.4044C104.82 10.6543 104.737 10.8566 104.57 11.0113C104.404 11.166 104.184 11.243 103.911 11.2421H96.7712V15.5809H101.894C102.156 15.5809 102.373 15.6612 102.545 15.8219C102.718 15.9825 102.804 16.1878 102.804 16.4377C102.804 16.6876 102.718 16.8927 102.545 17.0532C102.373 17.2136 102.156 17.294 101.894 17.2942H96.7712V22.5419C96.7699 22.7253 96.7147 22.9044 96.6123 23.0566C96.5099 23.2089 96.3649 23.3276 96.1955 23.3979C96.026 23.4683 95.8396 23.4871 95.6595 23.4521C95.4794 23.4172 95.3136 23.3299 95.1828 23.2012V23.2022Z" fill="#3A3A3A"/>
<path d="M107.454 23.2022C107.369 23.1151 107.302 23.0119 107.258 22.8986C107.213 22.7854 107.192 22.6645 107.195 22.5429V10.4581C107.192 10.3358 107.215 10.2142 107.261 10.1008C107.307 9.9874 107.375 9.88463 107.463 9.79879C107.546 9.71258 107.646 9.64431 107.756 9.59822C107.867 9.55212 107.986 9.52917 108.106 9.53077C108.228 9.52899 108.349 9.55179 108.463 9.59782C108.576 9.64385 108.679 9.71217 108.766 9.79873C108.852 9.8853 108.921 9.98835 108.967 10.1018C109.013 10.2152 109.035 10.3367 109.034 10.4591V21.6138H115.495C115.618 21.6115 115.741 21.6338 115.856 21.6794C115.97 21.725 116.075 21.793 116.163 21.8794C116.251 21.9659 116.321 22.069 116.369 22.1827C116.416 22.2965 116.441 22.4186 116.441 22.542C116.441 22.6654 116.416 22.7876 116.369 22.9013C116.321 23.0151 116.251 23.1182 116.163 23.2046C116.075 23.2911 115.97 23.3591 115.856 23.4047C115.741 23.4503 115.618 23.4725 115.495 23.4702H108.106C107.984 23.4736 107.864 23.4515 107.751 23.4054C107.639 23.3592 107.538 23.29 107.454 23.2022Z" fill="#3A3A3A"/>
<path d="M129.167 22.5597C129.169 22.6794 129.146 22.7982 129.1 22.9087C129.054 23.0192 128.985 23.1191 128.899 23.2022C128.813 23.2895 128.711 23.3583 128.597 23.4044C128.484 23.4505 128.362 23.4729 128.24 23.4702C128.059 23.4695 127.883 23.4168 127.731 23.3182C127.573 23.2198 127.451 23.0727 127.383 22.8989L126.383 20.4H119.975L118.958 22.8989C118.881 23.0697 118.757 23.2151 118.601 23.3182C118.453 23.4174 118.279 23.4704 118.101 23.4702C117.979 23.4733 117.857 23.4502 117.745 23.4025C117.633 23.3547 117.532 23.2834 117.449 23.1933C117.281 23.0187 117.188 22.7846 117.191 22.5419C117.195 22.4008 117.225 22.2617 117.28 22.1314L122.296 10.1538C122.474 9.73758 122.765 9.52933 123.17 9.52911C123.599 9.52911 123.89 9.73736 124.045 10.1538L129.078 22.167C129.131 22.2916 129.161 22.4246 129.167 22.5597ZM120.6 18.865H125.758L123.206 12.5107L120.6 18.865Z" fill="#3A3A3A"/>
<path d="M131.47 23.2022C131.382 23.1164 131.314 23.0136 131.268 22.9002C131.222 22.7868 131.199 22.6652 131.202 22.5429V10.4581C131.202 10.1845 131.291 9.96143 131.47 9.7889C131.557 9.704 131.66 9.63735 131.773 9.59285C131.886 9.54835 132.007 9.52691 132.129 9.52978C132.403 9.52978 132.626 9.61615 132.799 9.7889C132.971 9.96165 133.058 10.1847 133.057 10.4581V22.5419C133.06 22.6635 133.039 22.7844 132.994 22.8976C132.95 23.0108 132.883 23.114 132.799 23.2012C132.626 23.3799 132.403 23.4692 132.129 23.4692C132.007 23.4721 131.885 23.4498 131.772 23.4039C131.658 23.358 131.555 23.2893 131.47 23.2022Z" fill="#3A3A3A"/>
<path d="M145.856 22.6312C145.859 22.742 145.839 22.8523 145.797 22.9551C145.756 23.058 145.694 23.1513 145.615 23.2292C145.454 23.3897 145.237 23.47 144.963 23.4702C144.618 23.4702 144.35 23.3214 144.16 23.0238L141.09 18.0989H138.484V22.5419C138.487 22.6635 138.466 22.7844 138.421 22.8976C138.377 23.0109 138.31 23.1141 138.225 23.2012C138.052 23.3799 137.829 23.4692 137.556 23.4692C137.434 23.471 137.312 23.4483 137.199 23.4023C137.085 23.3563 136.982 23.2879 136.895 23.2014C136.809 23.1148 136.741 23.0117 136.695 22.8983C136.649 22.7848 136.626 22.6633 136.628 22.5409V10.4581C136.628 10.1845 136.717 9.96142 136.895 9.78889C136.982 9.70402 137.086 9.63739 137.199 9.59289C137.312 9.5484 137.433 9.52694 137.555 9.52977H140.767C141.648 9.52977 142.436 9.71428 143.132 10.0833C143.811 10.4353 144.375 10.9741 144.757 11.636C145.143 12.3026 145.337 13.0642 145.337 13.9207C145.337 14.7659 145.123 15.5156 144.694 16.1697C144.266 16.8237 143.684 17.3176 142.947 17.6512L145.678 22.0421C145.792 22.2175 145.854 22.4219 145.856 22.6312ZM140.769 16.3846C141.578 16.3846 142.244 16.1556 142.768 15.6976C143.291 15.2396 143.553 14.6475 143.553 13.9213C143.553 13.136 143.291 12.4935 142.768 11.9937C142.244 11.4939 141.578 11.2441 140.769 11.2441H138.484V16.3846H140.769Z" fill="#3A3A3A"/>
<mask id="mask0_2_34" style="mask-type:luminance" maskUnits="userSpaceOnUse" x="0" y="-1" width="31" height="34">
<path d="M30.3977 22.7378V10.2196C30.3973 9.52452 30.214 8.84177 29.8662 8.23995C29.5184 7.63813 29.0184 7.13842 28.4163 6.79103L17.5755 0.530588C16.9734 0.182838 16.2904 -0.000244141 15.5951 -0.000244141C14.8999 -0.000244141 14.2169 0.182838 13.6148 0.530588L2.77359 6.79103C2.17178 7.1386 1.67198 7.63837 1.32439 8.24017C0.976788 8.84197 0.793617 9.52463 0.793261 10.2196L0.793261 22.7378C0.79355 23.4328 0.976693 24.1155 1.3243 24.7173C1.6719 25.3191 2.17173 25.8189 2.77359 26.1664L13.6148 32.4272C14.2169 32.7748 14.8999 32.9578 15.5951 32.9578C16.2904 32.9578 16.9734 32.7748 17.5755 32.4272L28.4163 26.1681C29.0186 25.8206 29.5188 25.3206 29.8666 24.7184C30.2144 24.1163 30.3976 23.4332 30.3977 22.7378Z" fill="white"/>
</mask>
<g mask="url(#mask0_2_34)">
<path d="M12.7959 19.258C12.796 19.0791 12.8671 18.9075 12.9937 18.781C13.1202 18.6546 13.2918 18.5835 13.4707 18.5835C13.5015 18.5844 13.5321 18.5875 13.5624 18.5927L15.068 14.9898L10.9415 9.05174C10.7067 9.12911 10.4611 9.16862 10.2139 9.16878C10.1889 9.16878 10.1648 9.16581 10.1397 9.16482L7.70742 21.477C8.04169 21.6409 8.33203 21.8822 8.55435 22.1809L12.8305 19.4617C12.8085 19.396 12.7968 19.3273 12.7959 19.258Z" fill="#1FC76A"/>
<path d="M20.4307 22.9005C20.4518 22.8676 20.4742 22.8376 20.4967 22.8066L15.2987 15.3244L13.8812 18.7253C13.9871 18.8035 14.0671 18.9119 14.1105 19.0363C14.154 19.1607 14.159 19.2953 14.1248 19.4225L20.4307 22.9005Z" fill="#1FC76A"/>
<path d="M6.52952 21.2446L8.9849 8.81604C8.8008 8.70158 8.6334 8.56225 8.48743 8.40198L4.60655 11.4442C4.62141 11.4986 4.62927 11.5546 4.62996 11.611C4.62977 11.7387 4.59321 11.8638 4.52455 11.9715C4.45589 12.0792 4.35798 12.1651 4.24226 12.2192L6.32479 21.2667C6.39171 21.2565 6.45963 21.2489 6.52952 21.2446Z" fill="#1FC76A"/>
<path d="M23.4416 11.7725C23.442 11.2556 23.6137 10.7534 23.9298 10.3444C24.2459 9.93549 24.6887 9.64285 25.1889 9.5123L24.2411 4.39779L22.6257 3.46449L20.0269 4.94076C20.0549 5.04049 20.0592 5.14539 20.0396 5.2471C20.02 5.34882 19.9769 5.44455 19.9138 5.5267C19.8506 5.60885 19.7693 5.67516 19.676 5.72034C19.5828 5.76553 19.4803 5.78836 19.3768 5.78702C19.346 5.78612 19.3154 5.78303 19.2851 5.77779L16.0049 13.6325L21.7652 21.9247C21.9685 21.8676 22.1785 21.8384 22.3896 21.8377C22.3949 21.8377 22.4002 21.8377 22.4058 21.8377L24.605 13.7921C24.2513 13.5867 23.9577 13.2921 23.7535 12.9377C23.5494 12.5833 23.4418 12.1815 23.4416 11.7725Z" fill="#1FC76A"/>
<path d="M8.49798 29.4531L7.26831 25.8379C6.77172 25.9696 6.24548 25.9331 5.77184 25.7341C5.2982 25.535 4.90384 25.1847 4.6504 24.7378L2.28831 25.8686L8.49798 29.4531Z" fill="#1FC76A"/>
<path d="M25.5248 9.44801C25.9403 9.40138 26.3607 9.46755 26.7419 9.63955C27.123 9.81155 27.4508 10.083 27.6907 10.4255L30.3297 8.84306C30.2611 8.51105 30.123 8.19732 29.9244 7.92249C29.7259 7.64765 29.4715 7.41794 29.1779 7.24845L24.6317 4.62361L25.5248 9.44801Z" fill="#1FC76A"/>
<path d="M24.6887 24.6C24.6059 25.048 24.3942 25.462 24.0795 25.7914C23.7648 26.1208 23.3608 26.3512 22.9171 26.4544L23.3259 29.0871L29.1779 25.7084C29.4249 25.5654 29.6445 25.3795 29.8263 25.1595L24.6887 24.6Z" fill="#1FC76A"/>
<path d="M19.1045 4.49505C19.2299 4.43961 19.3692 4.42389 19.5038 4.45C19.6384 4.47611 19.7618 4.54279 19.8574 4.6411L22.2795 3.26538L16.7968 0.098899C16.4178 -0.119576 15.9863 -0.230377 15.549 -0.221541L19.1045 4.49505Z" fill="#1FC76A"/>
<path d="M27.8674 10.7202C28.048 11.0766 28.1341 11.4733 28.1175 11.8725C28.101 12.2716 27.9824 12.6599 27.773 13.0001C27.5636 13.3404 27.2705 13.6212 26.9216 13.8159C26.5727 14.0105 26.1798 14.1124 25.7803 14.1119C25.7747 14.1119 25.7694 14.1119 25.7641 14.1119L23.5646 22.1568C23.9184 22.3622 24.212 22.6569 24.416 23.0115C24.6201 23.366 24.7275 23.768 24.7273 24.177C24.7273 24.2044 24.7243 24.2311 24.7234 24.2585L30.0508 24.8384C30.2662 24.4709 30.38 24.0527 30.3805 23.6268V9.32967C30.3805 9.29077 30.3785 9.2522 30.3765 9.21396L27.8674 10.7202Z" fill="#1FC76A"/>
<path d="M22.5775 26.5055C22.5152 26.5104 22.4529 26.515 22.3896 26.515C21.9973 26.5156 21.6112 26.4173 21.2669 26.2294C20.9226 26.0414 20.6312 25.7697 20.4195 25.4395C20.2079 25.1092 20.0828 24.7309 20.0558 24.3396C20.0288 23.9482 20.1009 23.5564 20.2652 23.2002L13.958 19.7228C13.8365 19.8517 13.6689 19.9271 13.4919 19.9325C13.3149 19.9379 13.143 19.873 13.0138 19.7519L8.74094 22.469C8.8947 22.7556 8.98705 23.071 9.01211 23.3953C9.03716 23.7196 8.99437 24.0455 8.88646 24.3523C8.77855 24.6591 8.60789 24.94 8.38536 25.1772C8.16284 25.4143 7.89333 25.6025 7.59402 25.7298L8.9493 29.7138L14.3931 32.8569C14.7586 33.0678 15.173 33.1788 15.595 33.1788C16.0169 33.1788 16.4314 33.0678 16.7968 32.8569L23.0071 29.2714L22.5775 26.5055Z" fill="#1FC76A"/>
<path d="M4.50336 24.4286C4.38539 24.1293 4.33057 23.8088 4.34235 23.4873C4.35413 23.1658 4.43225 22.8502 4.5718 22.5603C4.71136 22.2704 4.90933 22.0125 5.1533 21.8028C5.39727 21.593 5.68197 21.436 5.98951 21.3415L3.90402 12.2805C3.78956 12.273 3.67897 12.2361 3.58291 12.1735C3.48684 12.1108 3.40854 12.0244 3.35554 11.9227C3.30254 11.821 3.27663 11.7073 3.28031 11.5927C3.28399 11.478 3.31713 11.3662 3.37654 11.2681L0.885885 8.73428C0.835703 8.92877 0.810228 9.12881 0.810061 9.32967V23.6268C0.810076 24.0326 0.912881 24.4318 1.10888 24.7872C1.30488 25.1425 1.5877 25.4424 1.93094 25.6589L4.50336 24.4286Z" fill="#1FC76A"/>
<path d="M3.62215 11.0275C3.75094 10.9519 3.90144 10.9219 4.04936 10.9424C4.19727 10.9628 4.33398 11.0325 4.43743 11.1402L8.27215 8.13362C8.03557 7.78239 7.89871 7.37355 7.87615 6.95067C7.85359 6.52779 7.94618 6.10672 8.14405 5.73231C8.34192 5.3579 8.63766 5.04418 8.99976 4.82459C9.36186 4.605 9.77675 4.48776 10.2002 4.48536C10.6237 4.48296 11.0399 4.59549 11.4044 4.81097C11.769 5.02644 12.0683 5.33678 12.2704 5.70892C12.4725 6.08106 12.5698 6.50106 12.5521 6.92417C12.5343 7.34728 12.4021 7.75764 12.1695 8.11153L15.7725 13.2979L18.9667 5.64593C18.8963 5.59333 18.8371 5.52735 18.7924 5.45177C18.7476 5.3762 18.7183 5.29252 18.7061 5.20556C18.6938 5.1186 18.6989 5.03008 18.721 4.94508C18.7431 4.86009 18.7817 4.78031 18.8348 4.71032L15.1497 -0.180008C14.883 -0.130186 14.6266 -0.0355509 14.3915 0.0998822L2.01303 7.24845C1.56718 7.50566 1.21574 7.89928 1.01051 8.37131L3.62215 11.0275Z" fill="#1FC76A"/>
</g>
</g>
<defs>
<clipPath id="clip0_2_34">
<rect width="145.089" height="33" fill="white" transform="translate(0.793247)"/>
</clipPath>
</defs>
</svg>
