<svg width="31" height="33" viewBox="0 0 31 33" fill="none" xmlns="http://www.w3.org/2000/svg">
<g clip-path="url(#clip0_1_33)">
<mask id="mask0_1_33" style="mask-type:luminance" maskUnits="userSpaceOnUse" x="0" y="0" width="31" height="33">
<path d="M30.0624 22.767V10.2329C30.062 9.53688 29.8784 8.85327 29.5302 8.25068C29.182 7.6481 28.6813 7.14775 28.0785 6.79991L17.2238 0.531507C16.621 0.183315 15.9371 0 15.241 0C14.5448 0 13.861 0.183315 13.2581 0.531507L2.40314 6.79991C1.80056 7.14793 1.30013 7.64834 0.952089 8.25091C0.604049 8.85347 0.420645 9.53699 0.420288 10.2329L0.420288 22.767C0.420578 23.4629 0.603954 24.1464 0.952001 24.749C1.30005 25.3516 1.80051 25.852 2.40314 26.2L13.2581 32.4687C13.861 32.8168 14.5449 33 15.241 33C15.9371 33 16.621 32.8168 17.2238 32.4687L28.0785 26.2016C28.6816 25.8537 29.1824 25.3531 29.5307 24.7502C29.8789 24.1472 30.0623 23.4633 30.0624 22.767Z" fill="white"/>
</mask>
<g mask="url(#mask0_1_33)">
<path d="M12.4382 19.2826C12.4383 19.1034 12.5095 18.9316 12.6362 18.805C12.7629 18.6783 12.9347 18.6072 13.1139 18.6072C13.1447 18.6081 13.1753 18.6112 13.2057 18.6164L14.7132 15.0089L10.5814 9.06331C10.3464 9.14078 10.1004 9.18033 9.85293 9.18049C9.82784 9.18049 9.80374 9.17752 9.77866 9.17653L7.34325 21.5044C7.67795 21.6685 7.96866 21.9101 8.19126 22.2091L12.4729 19.4866C12.4508 19.4208 12.4392 19.3519 12.4382 19.2826Z" fill="#1FC76A"/>
<path d="M20.0827 22.9297C20.1039 22.8967 20.1263 22.8667 20.1488 22.8357L14.9442 15.3439L13.5248 18.7491C13.631 18.8275 13.711 18.936 13.7545 19.0606C13.798 19.1851 13.803 19.3199 13.7688 19.4473L20.0827 22.9297Z" fill="#1FC76A"/>
<path d="M6.16384 21.2717L8.62235 8.8273C8.43802 8.71269 8.2704 8.57318 8.12425 8.4127L4.23843 11.4588C4.2533 11.5132 4.26118 11.5694 4.26187 11.6258C4.26168 11.7537 4.22507 11.8789 4.15632 11.9868C4.08758 12.0946 3.98954 12.1806 3.87368 12.2348L5.95886 21.2938C6.02587 21.2836 6.09386 21.276 6.16384 21.2717Z" fill="#1FC76A"/>
<path d="M23.0974 11.7875C23.0978 11.27 23.2697 10.7671 23.5863 10.3577C23.9028 9.94819 24.3461 9.65517 24.8469 9.52445L23.8979 4.40343L22.2805 3.46895L19.6784 4.94709C19.7064 5.04696 19.7108 5.15198 19.6911 5.25383C19.6714 5.35567 19.6283 5.45153 19.5651 5.53378C19.5019 5.61604 19.4204 5.68243 19.3271 5.72767C19.2338 5.77292 19.1312 5.79578 19.0274 5.79443C18.9967 5.79353 18.966 5.79044 18.9357 5.78519L15.6513 13.6499L21.4189 21.9527C21.6224 21.8955 21.8328 21.8662 22.0441 21.8655C22.0494 21.8655 22.0547 21.8655 22.0603 21.8655L24.2623 13.8097C23.9082 13.604 23.6142 13.3091 23.4098 12.9542C23.2054 12.5994 23.0977 12.1971 23.0974 11.7875Z" fill="#1FC76A"/>
<path d="M8.13481 29.4906L6.90357 25.8708C6.40635 26.0027 5.87945 25.9662 5.4052 25.7669C4.93096 25.5676 4.5361 25.2168 4.28233 24.7693L1.91724 25.9015L8.13481 29.4906Z" fill="#1FC76A"/>
<path d="M25.1833 9.46008C25.5994 9.4134 26.0203 9.47965 26.4019 9.65187C26.7835 9.82409 27.1117 10.0959 27.352 10.4388L29.9943 8.85437C29.9256 8.52193 29.7873 8.2078 29.5885 7.93262C29.3898 7.65744 29.135 7.42743 28.841 7.25772L24.2891 4.62955L25.1833 9.46008Z" fill="#1FC76A"/>
<path d="M24.3462 24.6313C24.2633 25.0799 24.0513 25.4945 23.7362 25.8243C23.4211 26.1541 23.0166 26.3848 22.5723 26.4881L22.9816 29.1242L28.841 25.7411C29.0884 25.598 29.3083 25.4119 29.4903 25.1915L24.3462 24.6313Z" fill="#1FC76A"/>
<path d="M18.7548 4.50081C18.8804 4.4453 19.0199 4.42956 19.1547 4.4557C19.2895 4.48184 19.413 4.54862 19.5087 4.64704L21.9339 3.26958L16.4442 0.0990633C16.0647 -0.11969 15.6327 -0.230632 15.1948 -0.221784L18.7548 4.50081Z" fill="#1FC76A"/>
<path d="M27.5289 10.7339C27.7097 11.0907 27.7959 11.488 27.7793 11.8876C27.7628 12.2873 27.644 12.676 27.4344 13.0167C27.2247 13.3574 26.9312 13.6386 26.5819 13.8335C26.2326 14.0284 25.8391 14.1304 25.4391 14.1299C25.4335 14.1299 25.4282 14.1299 25.4229 14.1299L23.2206 22.1851C23.5748 22.3907 23.8688 22.6858 24.0731 23.0408C24.2775 23.3958 24.3849 23.7982 24.3848 24.2078C24.3848 24.2352 24.3818 24.262 24.3808 24.2894L29.7151 24.87C29.9307 24.5021 30.0446 24.0834 30.0452 23.6569V9.34159C30.0452 9.30263 30.0432 9.26401 30.0412 9.22572L27.5289 10.7339Z" fill="#1FC76A"/>
<path d="M22.2323 26.5393C22.1699 26.5442 22.1075 26.5488 22.0441 26.5488C21.6514 26.5494 21.2648 26.451 20.92 26.2628C20.5753 26.0746 20.2835 25.8026 20.0715 25.4719C19.8596 25.1412 19.7344 24.7625 19.7074 24.3706C19.6804 23.9788 19.7525 23.5864 19.917 23.2298L13.6018 19.748C13.4801 19.877 13.3123 19.9525 13.1351 19.9579C12.9579 19.9634 12.7857 19.8983 12.6564 19.777L8.37808 22.4976C8.53204 22.7846 8.6245 23.1005 8.64959 23.4251C8.67468 23.7498 8.63183 24.0761 8.52378 24.3833C8.41573 24.6905 8.24486 24.9718 8.02205 25.2093C7.79924 25.4467 7.52938 25.6352 7.2297 25.7626L8.5867 29.7517L14.0375 32.8988C14.4034 33.1099 14.8184 33.2211 15.2408 33.2211C15.6633 33.2211 16.0783 33.1099 16.4442 32.8988L22.6624 29.3087L22.2323 26.5393Z" fill="#1FC76A"/>
<path d="M4.13511 24.4597C4.01699 24.16 3.9621 23.8391 3.97389 23.5172C3.98569 23.1953 4.06391 22.8793 4.20364 22.589C4.34337 22.2988 4.5416 22.0405 4.78588 21.8305C5.03016 21.6205 5.31522 21.4633 5.62315 21.3687L3.535 12.2962C3.4204 12.2887 3.30967 12.2517 3.21349 12.189C3.1173 12.1262 3.0389 12.0398 2.98583 11.9379C2.93277 11.836 2.90682 11.7222 2.91051 11.6074C2.91419 11.4927 2.94737 11.3808 3.00686 11.2825L0.513032 8.74544C0.462786 8.94017 0.437279 9.14047 0.437111 9.34158V23.6569C0.437127 24.0632 0.540062 24.463 0.736313 24.8187C0.932565 25.1745 1.21574 25.4748 1.55942 25.6916L4.13511 24.4597Z" fill="#1FC76A"/>
<path d="M3.25278 11.0415C3.38173 10.9659 3.53242 10.9359 3.68053 10.9563C3.82863 10.9768 3.96552 11.0466 4.06909 11.1544L7.9087 8.14402C7.67182 7.79234 7.53478 7.38298 7.51219 6.95956C7.48961 6.53615 7.58231 6.11453 7.78044 5.73965C7.97856 5.36476 8.27468 5.05065 8.63723 4.83078C8.99979 4.61091 9.41521 4.49352 9.83922 4.49112C10.2632 4.48871 10.68 4.60139 11.045 4.81713C11.41 5.03288 11.7097 5.34362 11.912 5.71623C12.1144 6.08885 12.2119 6.50938 12.1941 6.93303C12.1763 7.35667 12.0439 7.76756 11.811 8.1219L15.4186 13.3149L18.6168 5.65316C18.5464 5.6005 18.4871 5.53443 18.4423 5.45876C18.3975 5.38309 18.3682 5.2993 18.3559 5.21223C18.3436 5.12516 18.3487 5.03653 18.3708 4.95142C18.3929 4.86632 18.4317 4.78643 18.4848 4.71636L14.795 -0.180191C14.528 -0.130305 14.2713 -0.0355502 14.0358 0.100055L1.64161 7.25772C1.19519 7.51525 0.843306 7.90938 0.63781 8.38201L3.25278 11.0415Z" fill="#1FC76A"/>
</g>
</g>
<defs>
<clipPath id="clip0_1_33">
<rect width="29.6421" height="33" fill="white" transform="translate(0.420288)"/>
</clipPath>
</defs>
</svg>
